# xmcd
#
# Track frame offsets: 
#        150
#        12841
#        27233
#        50807
#        74446
#        92882
#        115013
#        131962
#        153381
#        186499
#        204615
#        219685
#
# Disc length: 3244 seconds
#
# Revision: 0
# Processed by: cddbd v1.5.2PL0 Copyright (c) Steve Scherf et al.
# Submitted via: ExactAudioCopy v1.3
#
DISCID=b70caa0c
DTITLE=Nicole Hart and Anni Piper - Split Second
DYEAR=2013
DGENRE=Blues
TTITLE0=Can't Let You Go
TTITLE1=Clap Your Hands
TTITLE2=Ain't Nobody Watchin
TTITLE3=Dream Baby
TTITLE4=You Can't Make Somebody Love You
TTITLE5=Why Should I Feel So Bad
TTITLE6=Bad Side Baby
TTITLE7=What Will Later On Be Like
TTITLE8=One Good Man
TTITLE9=Walk Right Back
TTITLE10=Twelve Bar Blues
TTITLE11=Listen To The Rain Fall
EXTD=
EXTT0=
EXTT1=
EXTT2=
EXTT3=
EXTT4=
EXTT5=
EXTT6=
EXTT7=
EXTT8=
EXTT9=
EXTT10=
EXTT11=
PLAYORDER=
